 <svg xmlns:mydata="http://www.w3.org/2000/svg" mydata:contrastcolor="007041" mydata:template="InvertedHex1" mydata:presentation="2.5" mydata:layouttype="undefined" mydata:specialfontid="undefined" mydata:id1="470" mydata:id2="669" mydata:companyname="Topo Navigator" mydata:companytagline="" version="1.1" xmlns="http://www.w3.org/2000/svg" xmlns:xlink="http://www.w3.org/1999/xlink" viewBox="0 0 550 470"><g fill="none" fill-rule="none" stroke="none" stroke-width="1" stroke-linecap="butt" stroke-linejoin="miter" stroke-miterlimit="10" stroke-dasharray="" stroke-dashoffset="0" font-family="none" font-weight="none" font-size="none" text-anchor="none" style="mix-blend-mode: normal"><g data-paper-data="{&quot;isGlobalGroup&quot;:true,&quot;bounds&quot;:{&quot;x&quot;:170.14608241503245,&quot;y&quot;:119.79335640054353,&quot;width&quot;:209.70783516993512,&quot;height&quot;:230.41328719891294}}"><g data-paper-data="{&quot;stacked&quot;:true,&quot;isPrimaryText&quot;:true}" fill="#ffffff" fill-rule="nonzero"><path d="M170.14608,249.18785h43.80331v14.02351h-14.86975v43.80331h-13.90261v-43.80331h-15.03094z" data-paper-data="{&quot;glyphName&quot;:&quot;T&quot;,&quot;glyphIndex&quot;:0,&quot;firstGlyphOfWord&quot;:true,&quot;word&quot;:1,&quot;line&quot;:1,&quot;firstGlyphOfFirstLine&quot;:true}"></path><path d="M240.66659,247.57596h1.81338c6.90429,0 13.35188,2.96858 19.34277,8.90573c5.66851,6.36699 8.50276,13.23099 8.50276,20.59199v2.25666c0,8.40873 -3.58647,16.03838 -10.75941,22.88894c-4.00288,3.00887 -7.57592,4.88942 -10.71912,5.64164c-2.76709,0.67162 -5.2118,1.00744 -7.33413,1.00744c-9.45646,0 -17.36819,-4.43272 -23.73519,-13.29815c-3.38498,-5.42672 -5.07748,-11.06836 -5.07748,-16.92492v-1.00744c0,-8.99976 3.57304,-16.80403 10.71912,-23.41281c5.50732,-4.43272 11.25642,-6.64908 17.2473,-6.64908zM227.36844,278.20201c0,4.08347 1.32982,7.71024 3.98945,10.88031c2.87455,3.30439 6.29983,4.95658 10.27585,4.95658c4.32526,0 8.14008,-2.25666 11.44447,-6.76997c1.69249,-2.71336 2.53874,-5.58791 2.53874,-8.62365v-0.56416c0,-6.09834 -2.6865,-10.85344 -8.05949,-14.26529c-2.0686,-0.96714 -4.04318,-1.491 -5.92372,-1.5716c-4.99688,0 -9.18781,2.74023 -12.5728,8.22068c-1.12833,2.6059 -1.69249,5.18494 -1.69249,7.73711z" data-paper-data="{&quot;glyphName&quot;:&quot;O&quot;,&quot;glyphIndex&quot;:1,&quot;word&quot;:1,&quot;line&quot;:1}"></path><path d="M273.14632,249.26845h26.31422c8.70425,0 14.93691,4.24466 18.69801,12.73399c0.83281,2.63277 1.24922,4.98345 1.24922,7.05205v1.41041c0,5.72224 -2.21636,10.70568 -6.64908,14.95035c-3.73423,3.22379 -8.16695,4.83569 -13.29815,4.83569h-12.45191v16.76373h-13.86232zM287.00863,263.13077v13.29815h12.04893c2.98201,0 4.91629,-1.1149 5.80283,-3.34469c0.4567,-1.02087 0.68506,-2.04174 0.68506,-3.0626v-0.52387c0,-2.6865 -1.10146,-4.6342 -3.30439,-5.84313c-1.02087,-0.34924 -2.08203,-0.52387 -3.1835,-0.52387z" data-paper-data="{&quot;glyphName&quot;:&quot;P&quot;,&quot;glyphIndex&quot;:2,&quot;word&quot;:1,&quot;line&quot;:1}"></path><path d="M350.19501,247.57596h1.81338c6.90429,0 13.35188,2.96858 19.34277,8.90573c5.66851,6.36699 8.50276,13.23099 8.50276,20.59199v2.25666c0,8.40873 -3.58647,16.03838 -10.75941,22.88894c-4.00288,3.00887 -7.57592,4.88942 -10.71912,5.64164c-2.76709,0.67162 -5.2118,1.00744 -7.33413,1.00744c-9.45646,0 -17.36819,-4.43272 -23.73519,-13.29815c-3.38498,-5.42672 -5.07748,-11.06836 -5.07748,-16.92492v-1.00744c0,-8.99976 3.57304,-16.80403 10.71912,-23.41281c5.50732,-4.43272 11.25642,-6.64908 17.2473,-6.64908zM336.89686,278.20201c0,4.08347 1.32982,7.71024 3.98945,10.88031c2.87455,3.30439 6.29983,4.95658 10.27585,4.95658c4.32526,0 8.14008,-2.25666 11.44447,-6.76997c1.69249,-2.71336 2.53874,-5.58791 2.53874,-8.62365v-0.56416c0,-6.09834 -2.6865,-10.85344 -8.05949,-14.26529c-2.0686,-0.96714 -4.04318,-1.491 -5.92372,-1.5716c-4.99688,0 -9.18781,2.74023 -12.5728,8.22068c-1.12833,2.6059 -1.69249,5.18494 -1.69249,7.73711z" data-paper-data="{&quot;glyphName&quot;:&quot;O&quot;,&quot;glyphIndex&quot;:3,&quot;lastGlyphOfWord&quot;:true,&quot;word&quot;:1,&quot;line&quot;:1,&quot;lastGlyphOfFirstLine&quot;:true}"></path><path d="M170.14608,319.43147h7.58982c0.09704,0.04159 1.19912,2.14179 3.30625,6.30059l4.44992,8.60873h0.06238v-14.90932h7.17394v29.81865h-7.61062c-0.1109,-0.06931 -2.66164,-5.01829 -7.6522,-14.84694h-0.08318v14.84694h-7.23632z" data-paper-data="{&quot;glyphName&quot;:&quot;N&quot;,&quot;glyphIndex&quot;:4,&quot;firstGlyphOfWord&quot;:true,&quot;word&quot;:2,&quot;line&quot;:2,&quot;firstGlyphOfSecondLine&quot;:true}"></path><path d="M203.97798,319.53544h9.21176c0.12476,0 0.74165,1.73977 1.85067,5.2193c0.19408,0.37429 3.029,8.53942 8.50476,24.49537h-7.56903l-2.14179,-6.13424h-10.29305c-0.08318,0.01386 -0.4644,1.01198 -1.14367,2.99434c-0.66541,2.09327 -1.04663,3.1399 -1.14367,3.1399h-7.50665c6.48774,-18.74236 9.89796,-28.64725 10.23066,-29.71467zM208.61505,328.18576c-1.76056,5.05988 -2.64084,7.6522 -2.64084,7.77697h5.36486v-0.06238l-2.66164,-7.71459z" data-paper-data="{&quot;glyphName&quot;:&quot;A&quot;,&quot;glyphIndex&quot;:5,&quot;word&quot;:2,&quot;line&quot;:2}"></path><path d="M216.03852,319.45227h7.58982l6.15503,17.98684h0.14556c0,-0.12476 1.81601,-6.12038 5.44804,-17.98684h7.52744c-5.64211,18.4651 -8.65032,28.39772 -9.02461,29.79785h-7.52744c-0.1109,0 -0.47133,-1.00504 -1.08129,-3.01513c-0.27725,-0.66541 -3.35477,-9.59298 -9.23255,-26.78272z" data-paper-data="{&quot;glyphName&quot;:&quot;V&quot;,&quot;glyphIndex&quot;:6,&quot;word&quot;:2,&quot;line&quot;:2}"></path><path d="M243.94411,319.45227h7.15315v29.79785h-7.15315z" data-paper-data="{&quot;glyphName&quot;:&quot;I&quot;,&quot;glyphIndex&quot;:7,&quot;word&quot;:2,&quot;line&quot;:2}"></path><path d="M267.52454,318.49574c3.03593,0 5.90551,0.99811 8.60873,2.99434c2.21803,1.82988 3.70134,3.67361 4.44992,5.53121c0.62382,1.19219 0.93573,1.99623 0.93573,2.41211h-8.29682c-0.69313,-1.34468 -2.0794,-2.39131 -4.15881,-3.1399c-0.74859,-0.13863 -1.31002,-0.20794 -1.68432,-0.20794c-2.30121,0 -4.26971,1.16447 -5.90551,3.4934c-0.87335,1.51103 -1.31002,2.99434 -1.31002,4.44992v0.51985c0,2.39825 0.94959,4.48458 2.84878,6.259c1.35854,1.12288 2.69629,1.68432 4.01325,1.68432h0.79017c1.95464,0 3.77758,-1.09515 5.46883,-3.28546v-0.08318h-3.86769v-7.36109h12.10213v7.36109c-0.15249,1.19219 -0.99811,2.9181 -2.53687,5.17771c-3.27159,3.89542 -7.11156,5.84312 -11.51989,5.84312c-3.79838,0 -7.20167,-1.43479 -10.20987,-4.30437c-3.11911,-3.34091 -4.67866,-6.9868 -4.67866,-10.93766v-1.16447c0,-4.18653 1.70511,-7.97798 5.11533,-11.37434c2.85571,-2.57846 6.13424,-3.86769 9.83558,-3.86769z" data-paper-data="{&quot;glyphName&quot;:&quot;G&quot;,&quot;glyphIndex&quot;:8,&quot;word&quot;:2,&quot;line&quot;:2}"></path><path d="M289.23352,319.53544h9.21176c0.12476,0 0.74165,1.73977 1.85067,5.2193c0.19408,0.37429 3.029,8.53942 8.50476,24.49537h-7.56903l-2.14179,-6.13424h-10.29305c-0.08318,0.01386 -0.4644,1.01198 -1.14367,2.99434c-0.66541,2.09327 -1.04663,3.1399 -1.14367,3.1399h-7.50665c6.48774,-18.74236 9.89796,-28.64725 10.23066,-29.71467zM293.87059,328.18576c-1.76056,5.05988 -2.64084,7.6522 -2.64084,7.77697h5.36486v-0.06238l-2.66164,-7.71459z" data-paper-data="{&quot;glyphName&quot;:&quot;A&quot;,&quot;glyphIndex&quot;:9,&quot;word&quot;:2,&quot;line&quot;:2}"></path><path d="M302.79123,319.41068h22.60312v7.23632h-7.673v22.60312h-7.17394v-22.60312h-7.75617z" data-paper-data="{&quot;glyphName&quot;:&quot;T&quot;,&quot;glyphIndex&quot;:10,&quot;word&quot;:2,&quot;line&quot;:2}"></path><path d="M339.18079,318.57892h0.93573c3.56271,0 6.88976,1.53183 9.98114,4.59548c2.92503,3.28546 4.38754,6.82737 4.38754,10.62575v1.16447c0,4.33902 -1.85067,8.27603 -5.55201,11.81101c-2.06554,1.55262 -3.90928,2.52301 -5.53121,2.91116c-1.42786,0.34657 -2.68936,0.51985 -3.78451,0.51985c-4.87967,0 -8.96223,-2.28734 -12.24769,-6.86203c-1.7467,-2.80026 -2.62005,-5.71143 -2.62005,-8.73349v-0.51985c0,-4.644 1.84374,-8.67111 5.53121,-12.08133c2.84185,-2.28734 5.80847,-3.43102 8.89985,-3.43102zM332.31876,334.38238c0,2.10713 0.6862,3.97859 2.05861,5.61439c1.48331,1.70511 3.2508,2.55767 5.30248,2.55767c2.23189,0 4.20039,-1.16447 5.90551,-3.4934c0.87335,-1.40013 1.31002,-2.88344 1.31002,-4.44992v-0.29112c0,-3.14683 -1.38627,-5.60053 -4.15881,-7.36109c-1.06743,-0.49906 -2.08633,-0.76938 -3.05672,-0.81097c-2.57846,0 -4.74104,1.41399 -6.48774,4.24198c-0.58223,1.34468 -0.87335,2.6755 -0.87335,3.99245z" data-paper-data="{&quot;glyphName&quot;:&quot;O&quot;,&quot;glyphIndex&quot;:11,&quot;word&quot;:2,&quot;line&quot;:2}"></path><path d="M355.94078,319.41068h23.91314v10.77131c0,3.29932 -1.27537,6.04413 -3.8261,8.23444h-0.06238v0.06238c2.59232,2.88344 3.88848,6.37684 3.88848,10.48019v0.29112h-7.15315c0,-4.32516 -2.06554,-7.04918 -6.19662,-8.17206c-1.38627,-0.27725 -2.52301,-0.41588 -3.41022,-0.41588v8.58794h-7.15315zM363.09393,326.56383v6.86203h6.50853c1.56648,0 2.57846,-0.84562 3.03593,-2.53687c0.04159,-0.55451 0.06238,-0.96346 0.06238,-1.22685v-3.09831z" data-paper-data="{&quot;glyphName&quot;:&quot;R&quot;,&quot;glyphIndex&quot;:12,&quot;lastGlyphOfWord&quot;:true,&quot;word&quot;:2,&quot;line&quot;:2,&quot;lastGlyphOfSecondLine&quot;:true}"></path></g><g data-paper-data="{&quot;isIcon&quot;:&quot;true&quot;,&quot;selectedEffects&quot;:{&quot;container&quot;:&quot;&quot;,&quot;transformation&quot;:&quot;&quot;,&quot;pattern&quot;:&quot;&quot;},&quot;fillRule&quot;:&quot;evenodd&quot;,&quot;fillRuleOriginal&quot;:&quot;evenodd&quot;,&quot;iconType&quot;:&quot;icon&quot;,&quot;rawIconId&quot;:&quot;4e9e3ed9-e91b-4b02-9b49-9d121c085397&quot;,&quot;combineTerms&quot;:&quot;mountain&quot;,&quot;iconStyle&quot;:&quot;standalone&quot;,&quot;bounds&quot;:{&quot;x&quot;:171.49844455615775,&quot;y&quot;:119.79335640054353,&quot;width&quot;:207.00311088768453,&quot;height&quot;:103.12080495065169},&quot;suitableAsStandaloneIcon&quot;:true}" fill-rule="evenodd"><g data-paper-data="{&quot;isPathIcon&quot;:true}"><path d="M371.89857,209.25811c-0.777,-1.246 -9.27998,-7.37899 -9.27998,-7.37899l-2.166,-0.102c-2.637,-1.962 -4.49699,-4.55799 -6.02999,-7.01099c-0.307,-0.368 -0.614,-0.715 -0.941,-1.083c-0.306,-0.348 -0.633,-0.695 -0.94,-1.043c-0.511,-0.572 -1.042,-1.124 -1.553,-1.696c-2.515,-2.71899 -5.49899,-4.94699 -7.74699,-8.36098c-0.552,-0.633 -1.084,-1.206 -1.595,-1.757l-1.594,-1.656c-2.126,-2.187 -4.29299,-4.35399 -6.54099,-6.41799c-2.187,-2.004 -5.02899,-3.74099 -6.84799,-6.07099c-0.49,-0.634 -1.492,-0.573 -2.187,-0.225c-1.329,0.674 -2.494,1.696 -3.63799,2.67799c-0.593,0.511 -1.186,1.042 -1.799,1.553c-0.205,0.164 -0.388,0.348 -0.593,0.511c-0.061,0.082 -0.143,0.164 -0.204,0.225c-2.371,-2.167 -4.88599,-4.25199 -7.48199,-6.11199c-1.737,-1.247 -3.45399,-2.473 -4.86399,-4.10799c-1.452,-1.697 -2.596,-3.61799 -3.78199,-5.49899c-2.187,-3.45399 -4.14899,-6.45899 -7.74699,-8.60498c-0.981,-0.593 -2.269,-0.123 -2.96399,0.838c-1.696,2.33 -3.47499,4.63999 -5.33499,6.88799c-0.593,-1.492 -1.553,-2.90199 -2.166,-4.00599c-1.84,-3.29099 -3.65899,-6.43899 -4.90599,-10.05698c-1.124,-3.22999 -2.433,-6.25499 -4.06799,-9.23898c-1.758,-3.24999 -1.88,-5.78499 -2.494,-9.54598c-0.184,-1.104 -2.023,-2.82099 -2.65699,-1.942c-0.327,0.47 -0.674,0.941 -1.042,1.452c-0.368,0.49 -0.736,1.001 -1.104,1.512c-1.227,3.61799 -3.84299,6.60199 -6.76599,9.38198c-0.307,0.47 -0.634,0.961 -0.92,1.431c-0.306,0.491 -0.613,0.961 -0.899,1.451c-0.307,0.491 -0.593,0.982 -0.879,1.452c-1.819,3.31099 -2.94399,6.68399 -5.78499,9.05498c-0.47,0.593 -0.92,1.185 -1.39,1.778c-0.92,1.186 -1.819,2.351 -2.596,3.55699c-0.449,0.572 -0.92,1.165 -1.39,1.737c-0.47,0.573 -0.92,1.166 -1.39,1.738c-1.431,1.778 -2.86099,3.55699 -4.31299,5.31399c-0.408,0.511 -0.776,0.941 -1.165,1.288c-0.245,0.491 -0.981,0.491 -1.369,0.859c-0.368,-1.493 -1.86,-1.86 -3.06599,-3.02599c-0.43,-0.347 -0.941,-0.551 -1.472,-0.551c-0.532,0 -1.083,0.184 -1.533,0.633c-5.27399,5.15099 -10.34298,10.46598 -15.37097,15.84197c-0.716,0.695 -1.472,1.349 -2.31,1.819c-1.268,0.695 -5.49899,1.206 -7.88999,0.858c-1.799,2.515 -5.02899,7.84999 -8.40098,12.03998c-4.47699,5.57999 -8.58498,11.34398 -13.30697,16.76097c-4.72199,5.39599 -9.09598,11.05898 -13.89997,16.39397c-0.061,0.061 0.021,0.143 0.082,0.081c1.226,-1.185 2.453,-2.35 3.67899,-3.53599c0.021,0.02 0.041,0.02 0.062,0c0.613,-0.593 1.206,-1.206 1.819,-1.799c2.555,-2.432 5.06899,-4.86499 7.50099,-7.41999c0.839,-0.838 2.494,-2.207 4.39499,-3.73999c-1.512,2.391 -3.53599,5.64099 -4.33299,7.01099c-0.777,1.349 -1.431,2.146 -1.84,2.575c2.106,-2.003 11.22198,-10.62898 15.80097,-14.18497c-3.14799,1.369 -5.10999,1.798 -6.31599,1.921c2.75899,-2.208 5.41599,-4.37399 6.58099,-5.49899c1.206,-3.47399 2.88299,-11.28298 9.58698,-16.63797c0.326,0.077 0.663,0.159 1.005,0.243c2.303,0.564 4.84599,1.187 5.69999,0.493c3.04499,-2.453 5.59999,-3.24999 8.66598,-5.66199c-3.02499,4.29199 -9.48398,13.44997 -9.74998,13.79697c-0.347,0.429 -2.637,3.90399 -2.637,3.90399l-3.76099,0.613c0,0 -0.858,4.10899 -1.553,4.86499c-0.009,0.01 -0.013,0.015 -0.013,0.016c0.031,0.031 18.47597,-18.30097 27.81195,-27.97795c0.634,-0.655 1.226,-1.268 1.737,-1.779c1.145,-0.552 1.901,-1.676 2.637,-2.412c-0.756,1.492 -1.492,2.98499 -2.391,4.39499l-0.736,1.288c-1.247,2.126 -2.616,4.18999 -3.94499,6.25499c-0.021,0.04 -0.021,0.081 0.02,0.102c-0.388,0.552 -0.797,1.083 -1.185,1.635c-0.021,0.041 0.02,0.082 0.061,0.041c5.21199,-5.41699 15.00297,-17.10897 21.23796,-21.46296c0.469,0.388 -0.181,2.145 -0.837,3.91399c-0.658,1.777 -1.32,3.56699 -0.86,3.99699l-11.44598,15.71897l19.82696,-19.72596c-2.31,3.27099 -10.30198,13.28697 -12.52998,16.59797c-7.13399,9.68898 -10.69098,16.00497 -10.69098,16.00497c0,0 12.97998,-13.30697 24.01795,-25.40695c0,0.061 0.021,0.122 0.041,0.163c-0.715,1.37 -1.083,2.90299 -1.737,4.31299c-0.941,2.044 -2.331,3.92499 -3.65899,5.74399c-0.123,0.163 0.143,0.368 0.286,0.225c1.512,-1.677 2.90199,-3.49599 4.51699,-5.08999c1.513,-1.492 3.35199,-2.555 4.45599,-4.45599c0.552,-0.961 0.941,-1.983 1.329,-3.02499c1.185,-1.636 2.33,-3.29099 3.49499,-4.96699c1.595,-1.901 3.16899,-3.82299 4.61999,-5.82599c0.02,-0.02 -0.021,-0.061 -0.041,-0.041c-2.105,2.208 -4.51699,4.00699 -6.84799,5.98899c-1.165,1.002 -2.269,2.065 -3.37199,3.12799c-0.062,0.061 -0.143,0.122 -0.205,0.184l7.25699,-22.81196c0,0 -19.27596,16.53597 -15.30997,11.95798c0.981,-1.145 2.432,-3.37299 4.02599,-6.05099c0.266,-0.449 0.532,-0.899 0.818,-1.369c0.307,-1.165 1.063,-2.29 1.676,-2.90299c0.286,-0.49 0.573,-1.001 0.859,-1.492c2.493,-4.39499 4.94599,-8.89198 6.51999,-11.54898c0.307,-0.531 0.593,-1.001 0.838,-1.369c0.47,-0.736 0.797,-1.125 0.879,-1.043c0.082,0.082 0.634,0.695 1.411,1.676c1.553,1.942 4.02599,5.37599 5.62099,9.07598c0.266,0.621 0.185,1.671 0.103,2.72599v0.002c-0.088,1.132 -0.176,2.269 0.163,2.89299c3.16799,5.96899 8.52298,8.99398 8.52298,8.99398c0,0 -16.53597,23.64996 -23.09796,32.27594c-0.245,0.347 -0.429,0.613 -0.531,0.756c1.492,-1.574 15.84097,-15.71897 20.25696,-19.66396c-2.29,3.92499 -7.54299,12.99998 -6.68499,12.42798c0.736,-0.491 6.70499,-7.66499 10.32298,-12.05998c0.859,0.613 1.676,1.226 1.983,1.451c3.04499,2.146 5.78399,4.68099 8.11498,7.56299l0.045,0.056c0.131,0.163 0.192,0.238 0.245,0.233c0.066,-0.007 0.119,-0.141 0.282,-0.391c0.664,-1.078 0.591,-2.593 0.518,-4.10699c-0.071,-1.471 -0.141,-2.93999 0.463,-4.00799c0.041,0.021 3.78199,1.615 3.84299,1.656l-2.555,-8.44198l-2.146,-4.31299l-5.17199,2.98399l3.65899,-12.79598c0,0 7.82899,13.10298 8.33998,13.51197c0.266,0.224 7.76699,4.20999 13.34697,8.89098c3.06699,4.35399 7.17499,8.25798 7.66599,8.72798l1.41,2.474c-0.184,-0.143 -0.368,-0.286 -0.572,-0.43c-3.74099,-2.67699 -7.82899,-4.76199 -11.50798,-7.56299c-0.041,-0.02 -0.082,0.041 -0.062,0.062c2.98499,2.596 6.05099,5.06899 8.97398,7.70599c1.431,1.288 2.92299,2.494 4.37399,3.76099c0.716,0.634 1.431,1.288 2.126,1.942c0.163,0.163 0.368,0.347 0.572,0.531l8.60598,12.12198l-6.07099,-16.27097l-3.65899,-2.82099c-2.371,-2.94299 -4.39499,-6.19299 -6.49999,-9.34098c0.123,-0.062 0.225,-0.123 0.347,-0.184c0.184,-0.021 0.389,-0.062 0.573,-0.062c0.491,-0.053 1.012,-0.284 1.518,-0.508c0.863,-0.383 1.681,-0.746 2.222,-0.166c1.472,1.553 9.01498,5.90699 10.58898,7.33799c1.67,1.531 1.632,2.78099 1.594,4.02499c-0.012,0.4 -0.024,0.8 0.02,1.208c-1.165,-0.511 -2.289,-1.063 -3.35199,-1.717c-0.02,-0.021 -0.041,0.02 -0.02,0.041c1.124,0.94 2.228,1.962 3.33199,2.98399c0.367,0.348 0.756,0.675 1.124,1.022c2.412,2.351 4.65999,4.21099 7.05199,6.19399l1.655,1.41c0.552,0.47 1.104,0.94 1.636,1.431c0,0 0.265,0.245 0.695,0.654c0.429,0.409 1.042,1.001 1.758,1.717c1.574,1.022 1.941,2.514 3.43399,3.61799c1.492,1.124 2.616,1.86 3.55599,2.90199c0,0 0.9,0.593 2.106,1.37c2.412,1.574 6.02999,3.92499 6.02999,3.92499l10.85398,11.15998c0,0 -5.82599,-10.89498 -6.60299,-12.14198zM237.82882,167.45719l-0.285,0.152c0.023,-0.023 0.043,-0.046 0.062,-0.067c0.075,-0.086 0.126,-0.143 0.223,-0.085z" fill-opacity="0.6" fill="#ffffff"></path><path d="M261.43778,189.26815c0.021,-0.021 0.062,-0.062 0.103,-0.123c-0.123,0.123 -0.164,0.184 -0.103,0.123z" fill="#ffffff"></path><path d="M182.43492,216.47409c0,0 0.164,-0.164 0.45,-0.429c-0.286,0.286 -0.45,0.429 -0.45,0.429z" fill="#ffffff"></path></g></g></g></g></svg>
